<svg id="Layer_1" data-name="Layer 1" xmlns="http://www.w3.org/2000/svg" viewBox="0 0 383 110"><defs><style>.cls-1{fill:#fff;}</style></defs><title>zdrojowa-invest-hotels</title><path class="cls-1" d="M86.93,22.56A5.33,5.33,0,0,0,83.15,21H31.39a.41.41,0,0,0,0,.07c.69.12,18.74,3.18,27.27,3.74C65.79,25.25,83.58,23,86.93,22.56Z"/><path class="cls-1" d="M88.44,26.08a.66.66,0,0,1-.61.61c-12.07,1.28-32.12,3.65-46.4.72-13.11-2.7-16.85-5.37-17.62-6h0a5.29,5.29,0,0,0-3.4,4.94V27l.53.31c2.72,1.47,16.5,8.5,30.95,8.9,9.46.26,34.61-1.95,36.55-2.12V26.3C88.46,26.22,88.44,26.16,88.44,26.08Z"/><path class="cls-1" d="M88.15,37.9c-9.84,1.72-31.88,3.72-48,.4-11.7-2.4-17.17-5.65-19.06-7h0a7.27,7.27,0,0,1-.61-.47v0l0,0V37c.29.18.6.36,1,.55l.83.43,0,0c4.52,2.28,16.83,7.87,29.65,8.22,9.46.26,34.61-2,36.55-2.12V37.66A.46.46,0,0,1,88.15,37.9Z"/><path class="cls-1" d="M88.15,48c-9.84,1.72-31.88,3.72-48,.4C29.83,46.27,24.36,43.5,21.91,42h0l-.05,0a14.2,14.2,0,0,1-1.39-1v0l0,0v6.25c.72.34,1.72.79,3.1,1.36,5.84,2.42,19,7.39,31.11,8.49,10,.91,33.8-4.37,33.8-4.37s0,.07,0,.17v-5A.46.46,0,0,1,88.15,48Z"/><path class="cls-1" d="M88.15,57.13C78.31,58.84,59.67,61.6,44,58.49c-14.31-2.85-20.32-5.57-22.55-6.86h0a0,0,0,0,1,0,0,9.12,9.12,0,0,1-1-.62h0l0,0v6.57l1,.38c3.86,1.39,19.87,6.89,35.33,8.26,9.35.84,30.88-2.67,31.73-2.81V56.83A.46.46,0,0,1,88.15,57.13Z"/><path class="cls-1" d="M55.23,69.72C43.49,69.5,29.59,64.8,23.46,62.5h0l-.19-.07c-1.43-.54-2.42-.93-2.8-1.09h0v4.6c.52.29,1.07.6,1.62.88l.39.2.3.15c5.36,2.68,20.34,9.39,34.64,9,27.16-.83,30.66-4.76,31.08-6V66.3a.21.21,0,0,1-.14.12C81.53,67.49,78.16,70.12,55.23,69.72Z"/><path class="cls-1" d="M51.22,78.84C38.09,78.61,24.74,72,21.3,70.21l-.87-.45v5l.85.53c3.41,2,17.68,9.7,32.25,9.26,26.72-.81,29-3.54,29.07-4.26,0-.09,0-.17,0-.17a.29.29,0,0,1,0,.17c0,.4.17,1.35.76,1.29,2.24-.18-21.7,6.94-36.95,5.54a63.42,63.42,0,0,1-24.74-7.78h0l-.14-.08-1.06-.63v0l0,0V83.7A5.32,5.32,0,0,0,25.75,89h57.4a5.32,5.32,0,0,0,5.31-5.32V73.44C87.34,74.33,73.07,79.23,51.22,78.84Z"/><path class="cls-1" d="M128.36,52.89h-22v-3l16.69-14H106.65V33h21v3L110.94,49.89l17.42,0v3Zm25.73-2.64a11.05,11.05,0,0,1-7.53,2.64H133.13V33h12.78c3.53,0,6.31.92,8.37,2.76a9.5,9.5,0,0,1,3.09,7.43,9,9,0,0,1-3.28,7.11Zm-2.43-12.36a7.63,7.63,0,0,0-5.46-2h-9.71v14h10.35A6.76,6.76,0,0,0,151.79,48a6.67,6.67,0,0,0,2-4.94,6.8,6.8,0,0,0-2.08-5.17Zm28.7,7.24,5.41,7.76H181.9l-5.47-7.59H166.22v7.59h-3.36V33h15.95a7,7,0,0,1,5,1.69,6,6,0,0,1,1.82,4.59,5.64,5.64,0,0,1-1.49,4.08,6.52,6.52,0,0,1-3.77,1.82ZM178,35.93H166.22v6.39h12.09q3.87,0,3.87-3.08,0-3.32-4.18-3.31Zm33.81,14.89a16.26,16.26,0,0,1-17.81,0A9.65,9.65,0,0,1,194.05,35a14.52,14.52,0,0,1,8.88-2.69A14.31,14.31,0,0,1,211.78,35a9.69,9.69,0,0,1,0,15.81Zm-2.43-13.61a12.09,12.09,0,0,0-13.31.26A7,7,0,0,0,196,48.36a10.73,10.73,0,0,0,6.92,2.09,10.56,10.56,0,0,0,6.88-2.1,6.95,6.95,0,0,0-.43-11.14Zm25.5,14.49q-2.34,1.81-6.82,1.81a9.88,9.88,0,0,1-6.3-1.77,6.65,6.65,0,0,1-2.38-5.13h3.4a4,4,0,0,0,1.51,3,7,7,0,0,0,4,.89,7.68,7.68,0,0,0,4.29-.91,3.49,3.49,0,0,0,1.32-3.09V33h3.35V46.51a6.17,6.17,0,0,1-2.33,5.19Zm29.52-.88a16.26,16.26,0,0,1-17.81,0A9.64,9.64,0,0,1,246.65,35a14.49,14.49,0,0,1,8.87-2.69A14.31,14.31,0,0,1,264.37,35a9.69,9.69,0,0,1,0,15.81ZM262,37.21a12.1,12.1,0,0,0-13.32.26,7,7,0,0,0-.05,10.89,12.43,12.43,0,0,0,13.81,0A7,7,0,0,0,262,37.21Zm34.77,15.68H292.4l-5-16.69L282.3,52.89H278L271.36,33h3.74l5.09,16.68L285.24,33h4.24l5.06,16.73L299.62,33h3.73l-6.61,19.94Zm29.51,0-2.33-4.45h-13.6L308,52.89h-3.67L315,33h4.22l10.69,19.94Zm-9.1-17.08L312,45.45H322.3l-5.15-9.64Z"/><path class="cls-1" d="M106.4,77.36V63.49h2.33V77.36Zm20.11,0L115.76,66V77.36h-2.33V63.49h2.89l10.74,11.38V63.49h2.34V77.36Zm15.58,0h-2.68l-7.57-13.87h2.59l6.32,11.58,6.31-11.58h2.61l-7.58,13.87Zm24.74-2.07v2.07H152.11V63.49h14.18v2.07H154.45v3.56h8.22V71.2h-8.22v4.09Zm9.47-10.1a8.59,8.59,0,0,0-3.3.5c-.77.33-1.14.79-1.14,1.38s.4,1.06,1.22,1.33a10.82,10.82,0,0,0,2.85.42c1.93.13,3.22.24,3.84.31a8.51,8.51,0,0,1,3.9,1.28,3.12,3.12,0,0,1,1.26,2.66,3.79,3.79,0,0,1-2,3.41,11,11,0,0,1-5.69,1.2c-3.58,0-6.37-.77-8.36-2.33l1.28-1.66a13.58,13.58,0,0,0,7.11,2,9,9,0,0,0,3.82-.66,2,2,0,0,0,1.3-1.78c0-.89-.57-1.47-1.71-1.77a37.72,37.72,0,0,0-4.81-.47,14.29,14.29,0,0,1-4.87-.92,2.78,2.78,0,0,1-1.63-2.7,3.43,3.43,0,0,1,1.85-3.08,10,10,0,0,1,5.23-1.13,13.43,13.43,0,0,1,7.61,2l-1.41,1.55a14.12,14.12,0,0,0-6.37-1.56Zm19.37.37v11.8h-2.33V65.56h-6.72V63.49h15.77v2.07Z"/><polygon class="cls-1" points="241.74 63.23 241.74 68.95 230.73 68.95 230.73 63.23 228.47 63.23 228.47 76.94 230.73 76.94 230.73 71.22 241.74 71.22 241.74 76.94 244.01 76.94 244.01 63.23 241.74 63.23"/><polygon class="cls-1" points="297.97 74.89 297.97 76.94 283.63 76.94 283.63 63.23 297.43 63.23 297.43 65.28 285.89 65.28 285.89 68.8 293.92 68.8 293.92 70.85 285.89 70.85 285.89 74.89 297.97 74.89 297.97 74.89"/><path class="cls-1" d="M321.51,64.91a8.15,8.15,0,0,0-3.21.5c-.74.33-1.12.78-1.12,1.36s.4,1,1.2,1.31a10.31,10.31,0,0,0,2.77.42q2.84.19,3.75.3a8.18,8.18,0,0,1,3.8,1.27,3.13,3.13,0,0,1,1.23,2.63A3.76,3.76,0,0,1,328,76.06a10.68,10.68,0,0,1-5.54,1.19q-5.23,0-8.16-2.31l1.25-1.64a13,13,0,0,0,6.92,2,8.53,8.53,0,0,0,3.73-.66,2,2,0,0,0,1.27-1.76c0-.88-.55-1.45-1.67-1.74a34.08,34.08,0,0,0-4.69-.47,13.7,13.7,0,0,1-4.74-.91,2.76,2.76,0,0,1-1.59-2.67,3.42,3.42,0,0,1,1.8-3,9.81,9.81,0,0,1,5.11-1.11,12.92,12.92,0,0,1,7.41,2l-1.39,1.53a13.52,13.52,0,0,0-6.2-1.55Z"/><polygon class="cls-1" points="274.58 65.28 274.58 76.94 272.31 76.94 272.31 65.28 265.77 65.28 265.77 63.23 281.13 63.23 281.13 65.28 274.58 65.28 274.58 65.28"/><polygon class="cls-1" points="299.97 63.23 302.24 63.23 302.24 74.89 312.08 74.89 312.08 76.94 299.97 76.94 299.97 63.23"/><path class="cls-1" d="M262.24,65.06a9.48,9.48,0,0,0-5.91-1.83,9.64,9.64,0,0,0-5.93,1.83,6.58,6.58,0,0,0,0,10.69,9.67,9.67,0,0,0,6,1.8,9.57,9.57,0,0,0,5.92-1.78,6.61,6.61,0,0,0,0-10.71Zm-1.32,9a7,7,0,0,1-4.59,1.42,7.08,7.08,0,0,1-4.62-1.41A4.54,4.54,0,0,1,250,70.39a4.49,4.49,0,0,1,1.77-3.66,8,8,0,0,1,8.89-.18,4.74,4.74,0,0,1,.28,7.54Z"/><path class="cls-1" d="M219.26,77.55,218,76a6,6,0,0,1-4.25,1.71c-2.79,0-4.55-1.68-4.55-4.19,0-2.17,1.54-3.26,3.12-4.31A5.06,5.06,0,0,1,210.72,66a3.16,3.16,0,0,1,6.31,0,3.1,3.1,0,0,1-1.6,2.57l-1.07.73L218,73.79a5.35,5.35,0,0,0,.81-3.3h1.46A6.69,6.69,0,0,1,219,74.9l2.21,2.65Zm-6.13-7.4c-1.24.85-2.47,1.66-2.47,3.3a2.82,2.82,0,0,0,3,2.87,4.73,4.73,0,0,0,3.4-1.4Zm.77-5.81A1.6,1.6,0,0,0,212.24,66c0,.67.34,1.22,1.29,2.37l.77-.53c.67-.46,1.3-1,1.3-1.8A1.68,1.68,0,0,0,213.9,64.34Z"/><path class="cls-1" d="M337.29,42.43a5.06,5.06,0,1,1,5.06-5.06A5.06,5.06,0,0,1,337.29,42.43Zm0-9.37a4.32,4.32,0,1,0,4.26,4.31A4.28,4.28,0,0,0,337.29,33.06Zm1.23,7.07-1.27-2.26h-.84v2.26h-.77V34.59h1.89a1.7,1.7,0,0,1,1.74,1.67,1.53,1.53,0,0,1-1.18,1.52l1.32,2.35Zm-1.07-4.85h-1v1.94h1a1,1,0,1,0,0-1.94Z"/></svg>